<?xml version="1.0" encoding="utf-8"?>
<!-- Generator: Adobe Illustrator 26.0.2, SVG Export Plug-In . SVG Version: 6.00 Build 0)  -->
<svg version="1.1" id="Layer_2" xmlns="http://www.w3.org/2000/svg" xmlns:xlink="http://www.w3.org/1999/xlink" x="0px" y="0px"
	 viewBox="0 0 410 404" style="enable-background:new 0 0 410 404;" xml:space="preserve">
<style type="text/css">
	.st0{fill-rule:evenodd;clip-rule:evenodd;}
</style>
<path class="st0" d="M103,33.6c0-14.4,11.6-26,26-26h149.7c14.4,0,26,11.6,26,26v167.4c3.3,5.1,6.8,9.9,10.3,14.1
	c11.2,13.2,10.3,22.2,8.9,35.1c-0.5,4.9-1.1,10.3-1.1,16.8c0,7,1.9,18.2,3.9,30.5c4.8,28.8,10.6,63.6-3.9,65.4
	c-10.7,2.5-24.3,6.4-38.8,10.6c-35.7,10.4-76.9,22.3-93.1,17.9c-20.8-5.7-42.5-30.7-50-41.5H129c-14.4,0-26-11.6-26-26v-27.2
	l-2.9-0.7c-7.4-1.9-12.6-8.5-12.6-16.1c0-6.2,3.5-11.8,8.8-14.7l-11.5-1.6c-7.4-1.1-12.8-7.4-12.8-14.8c0-7.4,5.5-13.8,12.8-14.8
	l5.3-0.8l-5.3-0.8c-7.4-1.1-12.8-7.4-12.8-14.8c0-7.4,5.5-13.8,12.8-14.8l18.2-2.6v-17.7l-17.4-9.5c-5.2-2.9-8.5-8.3-8.5-14.3
	c0-9,7.3-16.3,16.3-16.3h9.5L103,33.6z M294.4,184.7c-7.5-11.8-15-22.5-23.2-26.6c-11.8-5.9-18.1,13-15.5,28.5
	c1.4,8.3,7.9,18,14,27.3c5.4,8.2,10.6,15.9,11.8,22c0.9,4.7-1.5,16.3-4.5,30.8c-4.7,22.8-10.8,52.5-7.7,72.9H129
	c-8.6,0-15.6-7-15.6-15.6V33.6c0-8.6,7-15.6,15.6-15.6h42.4l2.2,8.9c1.7,7,8,11.8,15.1,11.8H219c7.2,0,13.4-4.9,15.1-11.8l2.2-8.9
	h42.4c8.6,0,15.6,7,15.6,15.6L294.4,184.7z M182.1,18h43.6l-1.6,6.4c-0.6,2.3-2.7,3.9-5,3.9h-30.3c-2.4,0-4.5-1.6-5-3.9L182.1,18z
	 M170.3,313.7c-2.9,0-5.2,2.3-5.2,5.2c0,2.9,2.3,5.2,5.2,5.2h64.6c2.9,0,5.2-2.3,5.2-5.2c0-2.9-2.3-5.2-5.2-5.2H170.3z"/>
</svg>
